<svg xmlns="http://www.w3.org/2000/svg" viewBox="0 0 4000 4000"><defs><style>.cls-1{isolation:isolate;}.cls-2{fill:#ecf3fe;}.cls-10,.cls-3{fill:#3a7ec1;}.cls-13,.cls-3,.cls-9{opacity:0.2;}.cls-3,.cls-9{mix-blend-mode:multiply;}.cls-14,.cls-4{fill:#fff;}.cls-5{fill:#e4ecf9;}.cls-6{fill:#f4b545;}.cls-7{fill:#5899f9;}.cls-8{fill:#52d1bd;}.cls-11{fill:#4686c6;}.cls-12{fill:#5693db;}.cls-13{fill:#4684af;}.cls-14{opacity:0.6;}.cls-15{fill:#545454;}.cls-16{fill:#606060;}.cls-17{fill:#636466;}.cls-18{fill:#f2f2f2;opacity:0.28;}</style></defs><g class="cls-1"><g id="Layer_1" data-name="Layer 1"><path class="cls-2" d="M789,2154.81c4.33-143.71,18.68-619.55,367.19-963.87,443.22-437.89,1306.94-544.49,1780.2-75.4,511.45,506.93,353,1474.19,62.29,1599.89-145.85,63.07-295.46-98.5-462.26-3.28-181.5,103.61-95.15,346.72-252.44,514.72-227.1,242.55-845.7,204.2-1196.64-127.86C769.61,2798.35,782.76,2362.38,789,2154.81Z"/><path class="cls-3" d="M2333.74,2674.24,1963.93,1403.61a48,48,0,0,0-59.55-32.7L900.22,1663.16a48.05,48.05,0,0,0-32.7,59.55l369.81,1270.64a48,48,0,0,0,59.55,32.7L2301,2733.79A48,48,0,0,0,2333.74,2674.24Z"/><path class="cls-4" d="M2339.36,2657.63,1335.19,2949.88a48,48,0,0,1-59.54-32.7L905.84,1646.55A48,48,0,0,1,938.53,1587L1942.7,1294.75a48,48,0,0,1,59.54,32.69l369.82,1270.64A48.05,48.05,0,0,1,2339.36,2657.63Z"/><path class="cls-5" d="M1978.37,1519.36h0l-2.67-9.19-949.41,276.32,5.15,17.67h0l22,75.5h0l5.14,17.67h0l22,75.51h0l5.14,17.67h0l22,75.5h0l5.14,17.67h0l22,75.5h0l5.15,17.67h0l22,75.51h0L1167,2270h0l22,75.5h0l5.14,17.67,949.4-276.32-.72-2.49h0Zm-311.68,384-75.51,22-22-75.5,75.5-22Zm-4.31-80.65,75.51-22,22,75.5-75.5,22Zm-88.87,107.76-75.5,22-22-75.51,75.5-22Zm-93.17,27.12-75.5,22-22-75.51,75.5-22Zm5.14,17.67,22,75.5-75.5,22-22-75.5Zm17.67-5.14,75.51-22,22,75.51-75.5,22Zm93.18-27.12,75.5-22,22,75.5-75.5,22Zm93.17-27.12,75.5-22,22,75.5-75.5,22Zm93.17-27.11,75.51-22,22,75.5-75.5,22Zm-5.14-17.67-22-75.51,75.5-22,22,75.5Zm-27.12-93.18-22-75.5,75.5-22,22,75.51Zm-17.67,5.15-75.5,22-22-75.5,75.5-22Zm-93.17,27.11-75.5,22-22-75.51,75.5-22Zm-93.17,27.12-75.51,22-22-75.5,75.5-22Zm-93.18,27.12-75.5,22-22-75.5,75.5-22Zm-93.17,27.12-75.5,22-22-75.5,75.5-22Zm5.14,17.67,22,75.5-75.51,22-22-75.5Zm27.12,93.17,22,75.5-75.5,22-22-75.51Zm27.12,93.17,22,75.51-75.5,22-22-75.5Zm17.67-5.14,75.5-22,22,75.51-75.5,22Zm93.17-27.12,75.5-22,22,75.5-75.5,22Zm93.17-27.12,75.51-22,22,75.5-75.5,22Zm93.18-27.11,75.5-22,22,75.51-75.5,22Zm93.17-27.12,75.5-22,22,75.51-75.5,22Zm93.17-27.12,75.51-22,22,75.5-75.5,22Zm-5.14-17.67-22-75.5,75.5-22,22,75.51Zm-27.12-93.17-22-75.51,75.5-22,22,75.5Zm-27.11-93.18-22-75.5,75.5-22,22,75.5Zm-27.12-93.17-22-75.5,75.51-22,22,75.51Zm-17.67,5.14-75.5,22-22-75.5,75.5-22Zm-93.18,27.12-75.5,22-22-75.51,75.5-22ZM1612.45,1717l-75.5,22-22-75.5,75.51-22Zm-93.17,27.12-75.5,22-22-75.5,75.5-22Zm-93.18,27.11-75.5,22-22-75.5,75.5-22Zm-93.17,27.12-75.5,22-22-75.51,75.51-22Zm-93.17,27.12-75.5,22-22-75.5,75.5-22Zm5.14,17.67,22,75.5-75.51,22-22-75.51Zm27.12,93.17,22,75.51-75.5,22-22-75.5Zm27.12,93.18,22,75.5-75.5,22-22-75.5Zm27.11,93.17,22,75.5-75.5,22-22-75.51Zm27.12,93.17,22,75.51-75.51,22-22-75.5Zm17.67-5.14,75.5-22,22,75.5-75.5,22Zm93.18-27.12,75.5-22,22,75.5-75.5,22Zm93.17-27.12,75.5-22,22,75.5-75.51,22Zm93.17-27.11,75.5-22,22,75.51-75.5,22Zm93.18-27.12,75.5-22,22,75.5-75.5,22Zm93.17-27.12,75.5-22,22,75.5-75.51,22Zm93.17-27.12,75.5-22,22,75.5-75.5,22Zm93.18-27.11,75.5-22,22,75.51-75.5,22Zm-5.15-17.67-22-75.51,75.5-22,22,75.5ZM1991,1910l-22-75.5,75.5-22,22,75.5Zm-27.12-93.17-22-75.5,75.51-22,22,75.51Zm-27.12-93.17-22-75.51,75.5-22,22,75.5Zm-27.12-93.18-22-75.5,75.5-22,22,75.5ZM1049.11,1799l75.5-22,22,75.51-75.5,22Zm27.12,93.17,75.5-22,22,75.5-75.5,22Zm27.11,93.17,75.5-22,22,75.5-75.5,22Zm27.12,93.18,75.5-22,22,75.51-75.51,22Zm27.12,93.17,75.5-22,22,75.5-75.5,22Zm27.12,93.17,75.5-22,22,75.5-75.5,22Z"/><path class="cls-6" d="M1267.33,2246a12.9,12.9,0,0,1-14.79-18.82L1323,2104.52a12.9,12.9,0,0,1,7.58-6l88.89-25.87L1479.6,1958a12.89,12.89,0,0,1,7.71-6.37,13.84,13.84,0,0,1,9.94,1l105.23,57.89,35.86-196.45a12.9,12.9,0,0,1,19-9l108,60,61.61-109.56,65.2-120.3a12.9,12.9,0,0,1,22.69,12.3l-65.3,120.48-68,120.92a12.92,12.92,0,0,1-17.53,5l-103.46-57.54-35.85,196.37a12.9,12.9,0,0,1-18.91,9l-109.39-60.18-56.54,107.87a12.91,12.91,0,0,1-7.83,6.4l-89.18,25.95L1274.92,2240A12.88,12.88,0,0,1,1267.33,2246Z"/><circle class="cls-7" cx="1264.52" cy="2232.49" r="24.57" transform="translate(-1301 2266.31) rotate(-61.23)"/><circle class="cls-4" cx="1264.52" cy="2232.49" r="11.18" transform="translate(-1301 2266.31) rotate(-61.23)"/><circle class="cls-7" cx="1334.5" cy="2115.8" r="24.57" transform="translate(-1162.42 2267.12) rotate(-61.23)"/><path class="cls-4" d="M1345.23,2112.67a11.18,11.18,0,1,1-13.86-7.61A11.19,11.19,0,0,1,1345.23,2112.67Z"/><circle class="cls-7" cx="1429.08" cy="2088.27" r="24.57" transform="translate(-1089.23 2335.75) rotate(-61.23)"/><path class="cls-4" d="M1439.82,2085.14a11.19,11.19,0,1,1-13.87-7.61A11.19,11.19,0,0,1,1439.82,2085.14Z"/><circle class="cls-7" cx="1492.43" cy="1970.37" r="24.57" transform="translate(-953.03 2330.13) rotate(-61.23)"/><circle class="cls-4" cx="1492.43" cy="1970.37" r="11.18" transform="translate(-596.4 648.81) rotate(-20.54)"/><circle class="cls-7" cx="1613.59" cy="2035.19" r="24.57" transform="translate(-947 2469.94) rotate(-61.23)"/><path class="cls-4" d="M1624.33,2032.06a11.19,11.19,0,1,1-13.87-7.61A11.19,11.19,0,0,1,1624.33,2032.06Z"/><circle class="cls-7" cx="1652.48" cy="1820.92" r="24.57" transform="translate(-739.02 2392.9) rotate(-61.23)"/><circle class="cls-4" cx="1652.48" cy="1820.92" r="11.18" transform="translate(-739.02 2392.9) rotate(-61.23)"/><circle class="cls-7" cx="1772.02" cy="1882.23" r="24.57" transform="translate(-730.76 2529.49) rotate(-61.23)"/><path class="cls-4" d="M1782.76,1879.11a11.19,11.19,0,1,1-13.86-7.62A11.18,11.18,0,0,1,1782.76,1879.11Z"/><circle class="cls-7" cx="1838.56" cy="1762.96" r="24.57" transform="translate(-708.54 1738.45) rotate(-43.25)"/><circle class="cls-4" cx="1838.56" cy="1762.96" r="11.18" transform="translate(-501.63 757.06) rotate(-20.54)"/><circle class="cls-7" cx="1903.67" cy="1641.86" r="24.57" transform="translate(-451.79 2520.21) rotate(-61.23)"/><path class="cls-4" d="M1914.41,1638.74a11.19,11.19,0,1,1-13.87-7.62A11.18,11.18,0,0,1,1914.41,1638.74Z"/><path class="cls-8" d="M1305.56,1638.53l-272.76,79.38a25.4,25.4,0,0,1-31.5-17.29h0a25.41,25.41,0,0,1,17.3-31.5l272.76-79.38a25.4,25.4,0,0,1,31.49,17.29h0A25.4,25.4,0,0,1,1305.56,1638.53Z"/><path class="cls-5" d="M1525.55,2394.41l-272.76,79.38a25.42,25.42,0,0,1-31.5-17.29h0a25.42,25.42,0,0,1,17.3-31.5l272.76-79.39a25.42,25.42,0,0,1,31.5,17.3h0A25.42,25.42,0,0,1,1525.55,2394.41Z"/><path class="cls-5" d="M2186,2323.82,1409,2550a25.42,25.42,0,0,1-31.5-17.3h0a25.42,25.42,0,0,1,17.3-31.5L2171.84,2275a25.42,25.42,0,0,1,31.5,17.3h0A25.41,25.41,0,0,1,2186,2323.82Z"/><path class="cls-5" d="M2218.68,2436l-900.61,262.12a25.42,25.42,0,0,1-31.5-17.3h0a25.42,25.42,0,0,1,17.3-31.5l900.61-262.11a25.42,25.42,0,0,1,31.5,17.29h0A25.42,25.42,0,0,1,2218.68,2436Z"/><path class="cls-5" d="M2251.32,2548.1,1350.7,2810.22a25.4,25.4,0,0,1-31.49-17.3h0a25.4,25.4,0,0,1,17.29-31.49l900.62-262.12a25.4,25.4,0,0,1,31.49,17.29h0A25.4,25.4,0,0,1,2251.32,2548.1Z"/><path class="cls-3" d="M2791.46,1209.15a48,48,0,0,0-49.81-46.19l-1045.09,39.33a48,48,0,0,0-46.2,49.81l49.78,1322.42a48,48,0,0,0,49.8,46.2L2795,2581.38a48,48,0,0,0,46.2-49.8Z"/><path class="cls-4" d="M2833.37,2533.47l-1045.09,39.34a48,48,0,0,1-49.81-46.2L1688.7,1204.19a48,48,0,0,1,46.2-49.81L2780,1115.05a48,48,0,0,1,49.8,46.19l49.78,1322.43A48,48,0,0,1,2833.37,2533.47Z"/><path class="cls-5" d="M2538.16,1646c-49.59-96.56-152-161.07-267.39-156.72a286.57,286.57,0,0,0-106,24.55c-104.45,46.49-175.63,153.17-171.07,274.24,4.49,119.35,81.33,219.23,186.65,258.93a288.54,288.54,0,0,0,180,7.48l.41-.11c124.64-35.59,214-152.83,208.89-288A286.76,286.76,0,0,0,2538.16,1646ZM2342,1988.79l-.31.09a220.3,220.3,0,0,1-137.39-5.7c-80.42-30.31-139.08-106.56-142.51-197.69-3.48-92.43,50.85-173.87,130.6-209.37a218.74,218.74,0,0,1,80.95-18.75c88.14-3.32,166.3,45.94,204.15,119.66a219,219,0,0,1,24,91.91C2505.35,1872.14,2437.15,1961.64,2342,1988.79Z"/><path class="cls-7" d="M2538.16,1646l-60.68,31c-37.85-73.72-116-123-204.15-119.66a218.74,218.74,0,0,0-80.95,18.75l-27.64-62.31a286.57,286.57,0,0,1,106-24.55C2386.2,1484.91,2488.57,1549.42,2538.16,1646Z"/><path class="cls-8" d="M2569.58,1766.37c5.08,135.15-84.25,252.39-208.89,288l-.41.11-18.6-65.58.31-.09c95.16-27.15,163.36-116.65,159.48-219.85a219,219,0,0,0-24-91.91l60.68-31A286.76,286.76,0,0,1,2569.58,1766.37Z"/><path class="cls-6" d="M2360.69,2054.35l-.41.11a288.54,288.54,0,0,1-180-7.48l24-63.8a220.3,220.3,0,0,0,137.39,5.7l.31-.09Z"/><path class="cls-5" d="M2393.59,1881.09a142.06,142.06,0,0,1-15,14.05,152.72,152.72,0,0,1-200.4-5.55,2.57,2.57,0,0,1-.46-.38,152.72,152.72,0,1,1,215.83-8.12Z"/><path class="cls-6" d="M2117.14,1292.14l-283.88,10.69a25.42,25.42,0,0,1-26.34-24.44h0a25.4,25.4,0,0,1,24.43-26.34l283.88-10.69a25.41,25.41,0,0,1,26.35,24.44h0A25.42,25.42,0,0,1,2117.14,1292.14Z"/><path class="cls-5" d="M2697.63,1378.21l-860.85,32.4a25.4,25.4,0,0,1-26.34-24.44h0a25.4,25.4,0,0,1,24.43-26.34l860.85-32.4a25.4,25.4,0,0,1,26.34,24.43h0A25.41,25.41,0,0,1,2697.63,1378.21Z"/><path class="cls-8" d="M2303.39,1626.07l-21.78,151.12-145.44-46.4a152.51,152.51,0,0,1,167.22-104.72Z"/><path class="cls-7" d="M2393.59,1881.09a142.06,142.06,0,0,1-15,14.05c-29.25-35.66-97-118-97-118l21.78-151.12a152.73,152.73,0,0,1,90.2,255Z"/><rect class="cls-6" x="1844.82" y="2145.8" width="136.26" height="305.27" transform="translate(-85.09 73.57) rotate(-2.16)"/><rect class="cls-5" x="2041.01" y="2262" width="136.26" height="181.73" transform="translate(-87 80.99) rotate(-2.16)"/><rect class="cls-6" x="2234.16" y="2216.83" width="136.26" height="219.62" transform="translate(-85.88 88.24) rotate(-2.16)"/><rect class="cls-5" x="2429.96" y="2311.93" width="136.26" height="117.19" transform="translate(-87.39 95.63) rotate(-2.16)"/><rect class="cls-6" x="2621.19" y="2164.54" width="136.26" height="257.32" transform="translate(-84.35 102.77) rotate(-2.16)"/><g class="cls-9"><rect class="cls-10" x="2715.38" y="2072.4" width="69.23" height="92.49" transform="translate(-710.06 2400.04) rotate(-42.26)"/><path class="cls-10" d="M2395.68,1728.75c-102.14,92.86-109.72,251-16.85,353.16s250.94,109.79,353.16,16.92,109.79-251,16.92-353.16S2497.89,1635.88,2395.68,1728.75Zm319.76,47.35c76.07,83.65,69.84,213.18-13.88,289.26s-213.18,69.84-289.26-13.81-69.91-213.25,13.81-289.33S2639.36,1692.38,2715.44,1776.1Z"/><path class="cls-10" d="M3036.86,2395.87l-38.3,34.8a29.65,29.65,0,0,1-41.88-2L2731,2180.27l82.18-74.67L3038.86,2354A29.65,29.65,0,0,1,3036.86,2395.87Z"/></g><path class="cls-3" d="M1156,1422.47,833.32,1351a53.52,53.52,0,0,0-63.63,40.56l-6.6,29.85-5.45-1.2a8.36,8.36,0,0,0-10,6.35l-11.29,51a8.37,8.37,0,0,0,6.35,10l5.45,1.21-2.82,12.73-5.45-1.21a8.38,8.38,0,0,0-10,6.35l-11.29,51a8.38,8.38,0,0,0,6.35,10l5.45,1.21-99.32,448.65a53.52,53.52,0,0,0,40.56,63.63l322.68,71.43A53.52,53.52,0,0,0,1058,2112l138.54-625.85A53.52,53.52,0,0,0,1156,1422.47Z"/><rect class="cls-11" x="727.99" y="1376.38" width="27.86" height="68.94" rx="8.35" transform="translate(322.47 -127.01) rotate(12.48)"/><rect class="cls-11" x="710.27" y="1456.41" width="27.86" height="68.94" rx="8.35" transform="translate(339.35 -121.29) rotate(12.48)"/><path class="cls-12" d="M980.67,2108.25,658,2036.81a53.51,53.51,0,0,1-40.56-63.62L756,1347.34a53.51,53.51,0,0,1,63.62-40.56l322.68,71.43a53.51,53.51,0,0,1,40.56,63.63L1044.3,2067.68A53.52,53.52,0,0,1,980.67,2108.25Z"/><rect class="cls-4" x="537" y="1499.63" width="726.28" height="415.77" rx="42.64" transform="translate(2761.84 1197.71) rotate(102.48)"/><path class="cls-8" d="M970,1458.32l-165.57-36.7a20.35,20.35,0,0,1-15.43-24.2h0A20.37,20.37,0,0,1,813.25,1382l165.57,36.7a20.36,20.36,0,0,1,15.43,24.21h0A20.37,20.37,0,0,1,970,1458.32Z"/><path class="cls-5" d="M1097.65,1568l-241.17-53.45a17.14,17.14,0,0,1-13-20.38h0a17.14,17.14,0,0,1,20.38-13L1105,1534.65a17.14,17.14,0,0,1,13,20.38h0A17.14,17.14,0,0,1,1097.65,1568Z"/><path class="cls-5" d="M1083.3,1632.75l-317.59-70.38a17.14,17.14,0,0,1-13-20.38h0a17.14,17.14,0,0,1,20.38-13l317.58,70.39a17.14,17.14,0,0,1,13,20.38h0A17.14,17.14,0,0,1,1083.3,1632.75Z"/><path class="cls-5" d="M1069,1697.49l-317.59-70.38a17.15,17.15,0,0,1-13-20.38h0a17.14,17.14,0,0,1,20.38-13l317.58,70.39a17.14,17.14,0,0,1,13,20.38h0A17.13,17.13,0,0,1,1069,1697.49Z"/><path class="cls-5" d="M1054.6,1762.23,737,1691.85a17.14,17.14,0,0,1-13-20.38h0a17.14,17.14,0,0,1,20.38-13L1062,1728.87a17.13,17.13,0,0,1,13,20.38h0A17.13,17.13,0,0,1,1054.6,1762.23Z"/><path class="cls-5" d="M957.71,1808.68l-235-52.09a17.14,17.14,0,0,1-13-20.38h0a17.15,17.15,0,0,1,20.38-13l235,52.09a17.15,17.15,0,0,1,13,20.38h0A17.14,17.14,0,0,1,957.71,1808.68Z"/><path class="cls-5" d="M1025.91,1891.71l-317.59-70.38a17.13,17.13,0,0,1-13-20.38h0a17.14,17.14,0,0,1,20.38-13l317.58,70.39a17.14,17.14,0,0,1,13,20.38h0A17.14,17.14,0,0,1,1025.91,1891.71Z"/><path class="cls-5" d="M1011.56,1956.45,694,1886.07a17.13,17.13,0,0,1-13-20.38h0a17.14,17.14,0,0,1,20.38-13L1019,1923.09a17.14,17.14,0,0,1,13,20.38h0A17.14,17.14,0,0,1,1011.56,1956.45Z"/><path class="cls-8" d="M963.33,2055.49l-267.48-59.28a8.58,8.58,0,0,1-6.5-10.2h0a8.58,8.58,0,0,1,10.2-6.5L967,2038.79a8.57,8.57,0,0,1,6.49,10.2h0A8.57,8.57,0,0,1,963.33,2055.49Z"/><circle class="cls-13" cx="2572.97" cy="1865.88" r="220.36" transform="translate(-565.77 2365.87) rotate(-45)"/><path class="cls-14" d="M2736.58,1888.78a10.44,10.44,0,0,1-1.37,0,9.84,9.84,0,0,1-9.05-10.59c.31-4,.48-8,.48-12.07.13-84.73-68.71-153.76-153.45-153.89a153.28,153.28,0,0,0-41,5.45,9.86,9.86,0,0,1-5.21-19,173.57,173.57,0,0,1,46.19-6.15c95.6.14,173.27,78,173.13,173.63q0,6.86-.54,13.58A9.87,9.87,0,0,1,2736.58,1888.78Z"/><rect class="cls-15" x="2724.49" y="2024.49" width="69.23" height="92.49" transform="translate(-675.47 2393.72) rotate(-42.26)"/><path class="cls-16" d="M2404.79,1680.84c-102.14,92.86-109.72,251-16.85,353.16s250.95,109.79,353.16,16.92,109.79-251,16.93-353.16S2507,1588,2404.79,1680.84Zm319.76,47.35c76.08,83.65,69.84,213.18-13.88,289.26s-213.18,69.84-289.26-13.81-69.91-213.25,13.81-289.33S2648.47,1644.47,2724.55,1728.19Z"/><path class="cls-16" d="M3046,2348l-38.29,34.79a29.64,29.64,0,0,1-41.88-2l-225.71-248.39,82.17-74.68L3048,2306.08A29.64,29.64,0,0,1,3046,2348Z"/><path class="cls-3" d="M2245.09,2579.91c-89.7,7.59-158.15,64.1-152.9,126.22,1.34,15.79,7.32,30.41,16.95,43.32l-146,119.16a223.41,223.41,0,0,0-72.67-5.48c-89.69,7.59-158.15,64.1-152.89,126.22s82.23,106.33,171.92,98.75,158.15-64.1,152.9-126.23c-2.75-32.51-25.17-60.1-58.76-77.94l133-108.53c31.86,21.92,77.7,33.68,127.5,29.47,89.69-7.59,158.15-64.09,152.89-126.22S2334.78,2572.32,2245.09,2579.91Z"/><path class="cls-17" d="M2301.3,2658.67a18.27,18.27,0,0,1-25.72-2.35c-16.72-20.08-51,4.81-51.34,5.06l-444.77,370.39a18.27,18.27,0,0,1-23.38-28.08l445.63-371c22.34-16.51,71.13-36.7,101.93.3A18.27,18.27,0,0,1,2301.3,2658.67Z"/><path class="cls-17" d="M1859.16,3026.82a18.28,18.28,0,0,0,2.34-25.73c-16.71-20.07,14-49.27,14.28-49.56L2320.6,2581.2a18.27,18.27,0,0,0-23.37-28.08L1851.6,2924.17c-20.28,19-49,63.31-18.17,100.3A18.28,18.28,0,0,0,1859.16,3026.82Z"/><circle class="cls-18" cx="1872.47" cy="2930.56" r="136.23" transform="translate(-1523.78 2182.38) rotate(-45)"/><circle class="cls-18" cx="2206.17" cy="2652.71" r="136.23" transform="translate(-1229.57 2336.96) rotate(-45)"/><path class="cls-17" d="M2104.88,2531.05c-54.84,45.66-70.88,121-44.42,183.4a120.43,120.43,0,0,0-100.87,84c-56.6-37.33-133.48-35.27-188.41,10.46-67.09,55.87-76.15,155.94-20.36,222.95s155.85,76.22,222.94,20.36a158.56,158.56,0,0,0,20.36-222.95c-1.09-1.31-2.26-2.71-3.44-3.94.59-3.66,1.27-7.23,2.11-10.79,4.7-18.33,14.26-34.06,27.83-45.36s30.77-17.85,49.65-19.15a92.9,92.9,0,0,1,11.07,0c1,1.39,2.09,2.7,3.18,4a157.75,157.75,0,0,0,104.53,55.89,156.78,156.78,0,0,0,43.42-1.14,156.89,156.89,0,0,0,75-34.39c67.1-55.87,76.23-155.85,20.36-223S2172,2475.19,2104.88,2531.05Zm-112.82,422.1A121.74,121.74,0,1,1,1794.56,2837c46.69-38.88,114.2-36.78,158.45,2.28l.07.09a114.24,114.24,0,0,1,13,13.29,104,104,0,0,1,6.56,8.64,119.08,119.08,0,0,1,21.26,61.69A122.68,122.68,0,0,1,1992.06,2953.15Zm292-206.87a120.76,120.76,0,0,1-77.36,28.13,122.34,122.34,0,0,1-30-3.69,119.11,119.11,0,0,1-56.82-32.08,106.12,106.12,0,0,1-7.31-8,114.83,114.83,0,0,1-10.72-15.16l-.07-.09c-30.4-50.59-20.24-117.36,26.46-156.24a121.77,121.77,0,0,1,155.83,187.15Z"/><circle class="cls-8" cx="1332.93" cy="1040.92" r="110.37"/><circle class="cls-8" cx="2793.33" cy="3066.79" r="78.04"/><circle class="cls-8" cx="2823.01" cy="742.39" r="71.88" transform="translate(301.89 2213.61) rotate(-45)"/><circle class="cls-6" cx="1004.58" cy="2608.17" r="44.52"/><circle class="cls-6" cx="3239.19" cy="1756.25" r="69.22"/></g></g></svg>